<?xml version="1.0" encoding="UTF-8" standalone="no"?>
<svg
   data-v-2cb57da0=""
   version="1.0"
   width="100%"
   height="100%"
   viewBox="0 0 340.000000 250.000000"
   preserveAspectRatio="xMidYMid meet"
   color-interpolation-filters="sRGB"
   style="margin: auto;"
   id="svg22"
   sodipodi:docname="logo.svg"
   inkscape:version="1.1.2 (0a00cf5339, 2022-02-04)"
   xmlns:inkscape="http://www.inkscape.org/namespaces/inkscape"
   xmlns:sodipodi="http://sodipodi.sourceforge.net/DTD/sodipodi-0.dtd"
   xmlns="http://www.w3.org/2000/svg"
   xmlns:svg="http://www.w3.org/2000/svg">
  <defs
     id="defs26" />
  <sodipodi:namedview
     id="namedview24"
     pagecolor="#ffffff"
     bordercolor="#666666"
     borderopacity="1.0"
     inkscape:pageshadow="2"
     inkscape:pageopacity="0.0"
     inkscape:pagecheckerboard="0"
     showgrid="false"
     inkscape:zoom="0.89974612"
     inkscape:cx="-129.48097"
     inkscape:cy="-219.50637"
     inkscape:window-width="1916"
     inkscape:window-height="1054"
     inkscape:window-x="2"
     inkscape:window-y="24"
     inkscape:window-maximized="1"
     inkscape:current-layer="svg22" />
  <g
     transform="matrix(2.3638395,0,0,2.0999429,-148.3171,72.017245)"
     id="g16"
     style="fill:#6fa8dc">
    <g
       data-gra="path-name"
       fill-rule=""
       class="tp-name"
       id="g14">
      <g
         id="g12">
        <g
           id="g10">
          <g
             id="g185">
            <g
               id="g693">
              <polyline
                 stroke="#6fa8dc"
                 stroke-width="3"
                 fill-opacity="0"
                 fill="#ffffff"
                 points="96.625,20 96.625,10 193.25,0 193.25,107 96.625,97 96.625,87"
                 id="polyline2"
                 transform="translate(-10.097509,-27.147447)" />
            </g>
            <path
               id="path8"
               d="m 139.26084,-14.388368 c -2.64,0 -5.17874,0.43984 -7.71874,1.33984 -7.8,2.64 -13.85766,8.3596995 -17.59766,15.1796795 -2.18,3.94 -3.9414,8.9000005 -3.9414,14.5000005 0,9.04 4.05858,14.5375 9.55858,17.93752 -1.32,0.66 -2.63938,1.54062 -3.85938,2.64062 -3.4,3.08 -6.14062,7.58094 -6.14062,13.96094 0,2.88 0.53906,5.40156 1.53906,7.60156 2.84,6.16 9.00078,10.45702 17.80078,10.45702 3.54,0 6.62172,-0.55858 9.26172,-1.55858 5.92,-2.3 10.78064,-6.26158 13.64064,-11.10156 0.22,-0.44 0.3203,-0.99908 0.3203,-1.53908 0,-0.66 -0.2214,-1.1989 -0.4414,-1.8789 -0.66,-1.52 -1.9786,-3.5 -4.0586,-3.5 -1.22,0 -1.8803,0.85938 -2.3203,1.85938 -0.32,0.76 -0.99938,1.75828 -1.85938,2.73828 -2.86,3.54 -7.82078,6.28124 -14.30078,6.28124 -1.54,0 -2.98078,-0.22014 -4.30078,-0.66014 -3.52,-1.32 -6.5,-4.17844 -6.5,-8.89844 0,-2.22 0.43874,-4.07954 1.21874,-5.51954 1.98,-3.72 5.7225,-5.72282 10.5625,-6.3828 0.34,0 0.66,-0.32016 1,-0.66016 0.88,-1.1 1.63672,-3.05906 1.63672,-5.03906 0,-1.44 -0.4389,-2.66016 -1.8789,-2.66016 h -0.41798 c -0.12,0 -0.3425,0.0011 -0.5625,0.12108 -1.22,-0.12 -2.41828,-0.5603 -3.73828,-1.3203 -3.96,-2.3 -7.3789,-7.16188 -7.3789,-13.42188 0,-6.1600005 2.8786,-11.4370405 6.0586,-14.9570405 3.18,-3.52 8.13796,-7.04296 14.41796,-7.04296 4.06,0 6.92188,1.8614 6.92188,5.9414 0,3.96 -1.54188,7.6 -3.42188,10.0000005 -1.86,2.42 -4.81844,4.7422 -8.89844,4.7422 -1.32,0 -2.20046,-0.1025 -2.98046,-0.5625 -0.42,-0.22 -0.75922,-0.53906 -1.19922,-0.53906 -1,0 -1.19922,2.86094 -1.19922,3.96092 0,3.52002 2.63906,5.27736 6.03906,5.27736 6.28,0 11.10078,-3.51672 14.30078,-7.13672 3.2,-3.74 6.03906,-9.1411005 6.03906,-15.6211005 0,-1.98 -0.32046,-3.8611 -0.98046,-5.6211 -2.08,-5.3799995 -7.1611,-8.9179595 -14.6211,-8.9179595 z"
               style="stroke-width:2" />
          </g>
        </g>
      </g>
    </g>
  </g>
</svg>
