<?xml version="1.0" encoding="UTF-8" standalone="no"?>
<svg
   data-v-2cb57da0=""
   version="1.0"
   width="195mm"
   height="110mm"
   viewBox="0 0 737.00787 415.74801"
   preserveAspectRatio="xMidYMid meet"
   color-interpolation-filters="sRGB"
   id="svg22"
   sodipodi:docname="logo.svg"
   inkscape:version="1.1.2 (0a00cf5339, 2022-02-04)"
   xmlns:inkscape="http://www.inkscape.org/namespaces/inkscape"
   xmlns:sodipodi="http://sodipodi.sourceforge.net/DTD/sodipodi-0.dtd"
   xmlns:xlink="http://www.w3.org/1999/xlink"
   xmlns="http://www.w3.org/2000/svg"
   xmlns:svg="http://www.w3.org/2000/svg">
  <defs
     id="defs26">
    <clipPath
       clipPathUnits="userSpaceOnUse"
       id="clipPath42">
      <use
         x="0"
         y="0"
         xlink:href="#g38"
         id="use44"
         width="100%"
         height="100%"
         transform="translate(72.267525,65.507147)" />
    </clipPath>
  </defs>
  <sodipodi:namedview
     id="namedview24"
     pagecolor="#ffffff"
     bordercolor="#666666"
     borderopacity="1.0"
     inkscape:pageshadow="2"
     inkscape:pageopacity="0.0"
     inkscape:pagecheckerboard="0"
     showgrid="false"
     inkscape:zoom="0.73925516"
     inkscape:cx="461.27511"
     inkscape:cy="142.71121"
     inkscape:window-width="1916"
     inkscape:window-height="1054"
     inkscape:window-x="2"
     inkscape:window-y="24"
     inkscape:window-maximized="1"
     inkscape:current-layer="svg22"
     units="mm"
     width="220mm"
     inkscape:document-units="mm" />
  <g
     inkscape:label="Clip"
     id="g38"
     transform="matrix(3.7439471,0,0,3.7439471,-273.60464,-257.1355)">
    <g
       data-v-2cb57da0=""
       fill="#6fa8dc"
       class="bordersvg b-d1"
       transform="translate(73.375,71.5)"
       id="g20">
      <polyline
         stroke="#6fa8dc"
         stroke-width="3"
         fill-opacity="0"
         fill="#ffffff"
         points="96.625,20 96.625,10 193.25,0 193.25,107 96.625,97 96.625,87"
         id="polyline2" />
      <g
         transform="translate(0,20)"
         id="g18">
        <g
           id="g6">
          <rect
             data-gra="graph-name-bg"
             stroke-width="2"
             class="i-icon-bg"
             x="0"
             y="0"
             width="193.25"
             height="67"
             fill-opacity="0"
             id="rect4" />
        </g>
        <g
           transform="translate(10,3)"
           id="g16">
          <g
             data-gra="path-name"
             fill-rule=""
             class="tp-name"
             id="g14">
            <g
               id="g12">
              <g
                 id="g10">
                <path
                   d="M 12.81,-16.89 H 12.6 c -0.06,0 -0.17,0 -0.28,0.06 -0.61,-0.06 -1.21,-0.28 -1.87,-0.66 -1.98,-1.15 -3.69,-3.58 -3.69,-6.71 0,-3.08 1.44,-5.72 3.03,-7.48 1.59,-1.76 4.07,-3.52 7.21,-3.52 2.03,0 3.46,0.93 3.46,2.97 0,1.98 -0.77,3.8 -1.71,5 -0.93,1.21 -2.41,2.37 -4.45,2.37 -0.66,0 -1.1,-0.05 -1.49,-0.28 -0.21,-0.11 -0.38,-0.27 -0.6,-0.27 -0.5,0 -0.6,1.43 -0.6,1.98 0,1.76 1.32,2.64 3.02,2.64 3.14,0 5.55,-1.76 7.15,-3.57 1.6,-1.87 3.02,-4.57 3.02,-7.81 0,-0.99 -0.16,-1.93 -0.49,-2.81 -1.04,-2.69 -3.58,-4.46 -7.31,-4.46 -1.32,0 -2.59,0.22 -3.86,0.67 -3.9,1.32 -6.93,4.18 -8.8,7.59 -1.09,1.97 -1.97,4.45 -1.97,7.25 0,4.52 2.03,7.27 4.78,8.97 -0.66,0.33 -1.32,0.77 -1.93,1.32 -1.7,1.54 -3.07,3.79 -3.07,6.98 0,1.44 0.27,2.7 0.77,3.8 1.42,3.08 4.5,5.23 8.9,5.23 1.77,0 3.31,-0.28 4.63,-0.78 2.96,-1.15 5.39,-3.13 6.82,-5.55 0.11,-0.22 0.16,-0.5 0.16,-0.77 0,-0.33 -0.11,-0.6 -0.22,-0.94 -0.33,-0.76 -0.99,-1.75 -2.03,-1.75 -0.61,0 -0.94,0.43 -1.16,0.93 -0.16,0.38 -0.5,0.88 -0.93,1.37 -1.43,1.77 -3.91,3.14 -7.15,3.14 -0.77,0 -1.49,-0.11 -2.15,-0.33 -1.76,-0.66 -3.25,-2.09 -3.25,-4.45 0,-1.11 0.22,-2.04 0.61,-2.76 0.99,-1.86 2.86,-2.86 5.28,-3.19 0.17,0 0.33,-0.16 0.5,-0.33 0.44,-0.55 0.82,-1.53 0.82,-2.52 0,-0.72 -0.22,-1.33 -0.94,-1.33 z M 38.5,-0.44 c 1.81,0 3.36,-0.22 4.73,-0.72 2.31,-0.82 4.35,-2.19 5.33,-4.12 0.45,-0.83 0.67,-1.54 0.67,-2.14 0,-0.23 -0.06,-0.45 -0.17,-0.67 -0.27,-0.6 -0.93,-1.43 -1.81,-1.43 -0.28,0 -0.5,0.12 -0.66,0.33 -0.5,0.66 -1.11,2.15 -1.54,2.86 -0.94,1.6 -2.32,2.32 -4.79,2.48 0.83,-2.03 1.43,-5.06 1.43,-8.03 0,-2.75 -0.55,-5.17 -1.6,-6.87 -0.93,-1.55 -2.41,-2.81 -4.78,-2.81 -2.47,0 -3.96,1.38 -5,2.92 -0.06,-1.38 -1.38,-2.37 -2.97,-2.37 -0.55,0 -1.76,0.11 -1.76,0.6 0,0.11 0.05,0.23 0.11,0.28 0.33,0.44 0.44,0.99 0.44,1.81 v 38.39 c 0,0.94 0.22,1.49 1.26,1.49 1.65,0 2.92,-0.72 2.92,-2.42 V 1.26 c 0.55,0.61 1.43,0.83 2.64,0.83 2.31,0 4.28,-1.21 5.55,-2.53 z m -4.56,-17.44 c 0.44,0 0.88,0.11 1.32,0.33 1.7,1 2.14,3.69 2.14,6.55 0,0.49 -0.06,1.15 -0.11,1.81 -0.27,2.15 -0.82,4.4 -1.81,5.89 -2.2,0.16 -4.29,0.61 -5.17,1.92 v -11.88 c 0.33,-1.26 0.77,-2.53 1.43,-3.35 0.49,-0.6 1.21,-1.27 2.2,-1.27 z M 48.56,1.54 c 1.38,0 1.55,-0.99 1.55,-2.36 v -8.04 c 0.11,-1.1 0.33,-2.14 0.77,-3.24 0.77,-1.93 1.86,-3.85 3.18,-5.06 0.56,-0.55 1.05,-0.77 1.43,-0.77 1.21,0 1.16,1.87 1.16,3.14 v 11.16 c 0,2.92 1.71,5.17 4.62,5.17 1.15,0 2.2,-0.28 3.08,-0.83 2.53,-1.59 3.9,-4.56 4.79,-7.75 0.27,-1.1 -0.55,-2.03 -1.16,-2.42 -1.15,-0.66 -1.82,0.33 -2.04,1.43 -0.27,1.32 -0.66,2.75 -1.21,3.85 -0.49,0.93 -1.21,2.09 -2.47,2.09 -1.21,0 -1.43,-1.37 -1.43,-2.53 V -16 c 0,-3.2 -1.32,-5.56 -4.56,-5.56 -0.66,0 -1.27,0.11 -1.88,0.38 -2.03,0.94 -3.3,3.03 -4.28,5.07 v -18.05 c 0,-1.48 -1.38,-2.42 -2.98,-2.42 -0.54,0 -1.75,0.11 -1.75,0.61 0,0.11 0.05,0.22 0.1,0.27 0.33,0.44 0.44,1 0.44,1.82 v 33 c 0,1.65 1.05,2.42 2.64,2.42 z M 70.67,-5.5 c 2.59,-0.77 4.68,-2.37 6.05,-4.29 1.16,-1.59 2.09,-3.74 2.09,-6.21 0,-3.25 -1.7,-5.56 -4.95,-5.56 -2.58,0 -4.51,1.76 -5.77,3.47 -1.49,2.09 -2.64,5.16 -2.64,8.74 0,3.52 1.21,6.21 2.97,8.03 1.54,1.6 3.85,2.86 6.77,2.86 1.31,0 2.52,-0.16 3.57,-0.5 4.07,-1.32 6.49,-4.78 7.09,-9.51 0.12,-0.99 -0.66,-1.71 -1.43,-1.92 -1.1,-0.28 -1.7,0.43 -1.92,1.37 -0.66,3.57 -2.42,6.93 -6.71,6.93 -2.75,0 -4.35,-1.43 -5.12,-3.41 z m 3.85,-10.45 c 0,3.68 -1.98,6.22 -4.5,7.42 0,-0.33 -0.06,-0.66 -0.06,-0.99 -0.11,-2.47 0.44,-5.05 1.32,-6.71 0.38,-0.77 1.04,-1.65 2.09,-1.65 0.88,0 1.15,0.94 1.15,1.93 z m 32.45,11.33 V -16 c 0,-3.14 -1.2,-5.56 -4.4,-5.56 -0.6,0 -1.21,0.11 -1.76,0.38 -1.87,0.94 -3.08,2.81 -4.01,4.79 -0.17,-2.91 -1.27,-5.17 -4.35,-5.17 -0.6,0 -1.21,0.11 -1.76,0.38 -1.92,0.94 -3.13,2.92 -4.06,4.9 v -2.31 c 0,-1.48 -1.38,-2.42 -2.97,-2.42 -0.67,0 -1.44,0.33 -1.44,0.94 0,0.21 0.06,0.38 0.11,0.6 0.06,0.22 0.11,0.66 0.11,1.15 v 17.44 c 0,1.65 1.05,2.42 2.64,2.42 1.38,0 1.55,-0.99 1.55,-2.36 v -8.04 c 0.1,-1.1 0.32,-2.14 0.71,-3.24 0.66,-1.93 1.71,-3.85 2.91,-5.06 0.55,-0.55 0.94,-0.77 1.32,-0.77 1.1,0 1.05,1.98 1.05,3.14 v 13.91 c 0,1.65 1.04,2.42 2.64,2.42 1.37,0 1.54,-0.99 1.54,-2.36 v -8.04 c 0.05,-1.1 0.33,-2.14 0.72,-3.24 0.71,-1.93 1.64,-3.85 2.86,-5.06 0.54,-0.55 0.98,-0.77 1.37,-0.77 1.1,0 1.04,1.98 1.04,3.14 v 11.16 c 0,2.92 1.71,5.17 4.62,5.17 1.16,0 2.2,-0.28 3.09,-0.83 2.53,-1.59 3.9,-4.56 4.78,-7.75 0.05,-0.11 0.05,-0.17 0.05,-0.22 v -0.16 c 0,-1.05 -0.88,-2.26 -1.92,-2.26 -0.83,0 -1.16,0.82 -1.32,1.65 -0.28,1.32 -0.66,2.75 -1.21,3.85 -0.5,0.93 -1.21,2.09 -2.47,2.09 -1.22,0 -1.44,-1.37 -1.44,-2.53 z m 9.8,-0.88 c 2.58,-0.77 4.67,-2.37 6.04,-4.29 1.16,-1.59 2.1,-3.74 2.1,-6.21 0,-3.25 -1.71,-5.56 -4.96,-5.56 -2.58,0 -4.51,1.76 -5.77,3.47 -1.49,2.09 -2.64,5.16 -2.64,8.74 0,3.52 1.21,6.21 2.97,8.03 1.54,1.6 3.85,2.86 6.77,2.86 1.31,0 2.52,-0.16 3.57,-0.5 4.07,-1.32 6.49,-4.78 7.09,-9.51 0.12,-0.99 -0.66,-1.71 -1.43,-1.92 -1.1,-0.28 -1.7,0.43 -1.92,1.37 -0.66,3.57 -2.42,6.93 -6.71,6.93 -2.75,0 -4.35,-1.43 -5.11,-3.41 z m 3.84,-10.45 c 0,3.68 -1.98,6.22 -4.5,7.42 0,-0.33 -0.06,-0.66 -0.06,-0.99 -0.11,-2.47 0.44,-5.05 1.32,-6.71 0.38,-0.77 1.04,-1.65 2.09,-1.65 0.88,0 1.15,0.94 1.15,1.93 z m 27.83,8.53 c 0,-1.05 -0.88,-2.26 -1.92,-2.26 -0.77,0 -1.15,0.82 -1.32,1.65 -0.27,1.32 -0.66,2.75 -1.21,3.85 -0.49,0.99 -1.32,2.09 -2.75,2.09 -1.54,0 -2.2,-1.43 -2.2,-2.97 0,-0.94 0.05,-1.87 0.17,-2.81 0.44,-3.24 1.32,-6.32 2.14,-9.07 0.11,-0.38 0.16,-0.66 0.16,-0.77 0.12,-0.83 -0.54,-1.59 -0.98,-2.04 -0.39,-0.38 -1.1,-1.04 -1.65,-1.04 h -3.31 c -0.88,0 -1.59,-0.11 -2.47,-0.22 -0.44,-1.6 -1.48,-2.92 -3.47,-2.92 -1.54,0 -2.74,1 -2.74,2.54 0,1.75 1.15,2.85 2.36,3.51 -0.06,3.19 -0.22,6.93 -0.88,9.58 -0.28,1.04 0.5,1.92 1.1,2.3 0.94,0.55 1.71,0.17 1.98,-0.76 0.88,-2.87 1.27,-6.61 1.37,-10.13 h 4.79 c -0.88,2.37 -1.54,4.57 -2.04,6.55 -0.49,1.98 -0.71,3.85 -0.71,5.61 0,1.21 0.17,2.25 0.49,3.02 0.83,1.93 2.53,3.25 5.18,3.25 1.15,0 2.19,-0.28 3.07,-0.83 2.53,-1.59 3.91,-4.56 4.79,-7.75 0,-0.11 0.05,-0.22 0.05,-0.38 z m -0.1,-19.04 c 1.92,0 3.35,-1.43 3.35,-3.35 0,-1.98 -1.38,-3.35 -3.35,-3.35 -1.93,0 -3.31,1.43 -3.31,3.35 0,0.44 0.12,0.93 0.28,1.32 0.5,1.1 1.49,2.03 3.03,2.03 z m -1.71,5.45 c -0.66,0 -1.43,0.33 -1.43,0.94 0,0.21 0.05,0.38 0.11,0.6 0.06,0.22 0.11,0.66 0.11,1.15 v 14.69 c 0,2.92 1.65,5.17 4.62,5.17 1.15,0 2.2,-0.28 3.08,-0.83 2.53,-1.59 3.91,-4.56 4.79,-7.75 0.27,-1.1 -0.61,-2.03 -1.22,-2.42 -1.1,-0.72 -1.75,0.39 -1.97,1.43 -0.28,1.32 -0.66,2.75 -1.22,3.85 -0.49,0.93 -1.2,2.09 -2.47,2.09 -1.21,0 -1.43,-1.37 -1.43,-2.53 v -13.97 c 0,-1.48 -1.38,-2.42 -2.97,-2.42 z m 10.89,3.9 c -0.88,2.59 -2.09,5.78 -2.69,8.48 -0.22,0.98 0.55,1.81 1.21,2.09 1.04,0.43 1.76,-0.12 1.98,-1 0.71,-2.52 1.21,-4.4 2.14,-6.65 1.87,1.87 3.96,4.07 3.96,7.76 0,1.37 -0.6,2.64 -1.21,3.35 -0.44,0 -0.99,-0.06 -1.54,-0.22 -2.31,-0.6 -4.4,-1.92 -6.49,-2.75 -0.38,-0.16 -0.66,-0.22 -0.82,-0.22 -0.33,0 -0.61,0.16 -0.88,0.49 -0.61,0.72 -0.83,1.82 -0.44,3.03 0.33,1.04 1.37,2.09 2.42,2.75 1.26,0.77 2.97,1.54 4.95,1.54 2.31,0 4.12,-0.88 5.39,-1.98 4.4,-0.33 7.37,-1.87 9.13,-4.73 0.33,-0.55 0.77,-1.37 0.77,-2.15 0,-0.22 -0.06,-0.38 -0.17,-0.65 -0.27,-0.61 -0.93,-1.55 -1.81,-1.55 -0.72,0 -0.99,0.78 -1.27,1.49 -0.71,2.03 -2.14,3.52 -4.51,3.96 0.17,-0.55 0.28,-1.26 0.28,-1.98 0,-1.32 -0.17,-2.42 -0.55,-3.41 -1.27,-3.3 -3.69,-5.33 -5.39,-8.36 0,-0.06 0.11,-0.22 0.22,-0.5 0.44,-0.82 1.1,-1.98 1.1,-3.24 0,-1.43 -0.61,-2.48 -1.99,-2.48 -1.04,0 -2.19,0.88 -2.91,1.49 -0.71,0.6 -1.76,1.71 -1.76,2.86 0,1.1 0.44,1.87 0.88,2.58 z"
                   transform="translate(-2.1500001,39.439999)"
                   id="path8" />
              </g>
            </g>
          </g>
        </g>
      </g>
    </g>
  </g>
</svg>
